<mxfile host="app.diagrams.net" agent="Mozilla/5.0 (Windows NT 10.0; Win64; x64) AppleWebKit/537.36 (KHTML, like Gecko) Chrome/140.0.0.0 Safari/537.36" version="28.2.1" pages="3">
  <diagram name="Cau8_2" id="eKoVXLivtObKefZLfyAP">
    <mxGraphModel grid="0" page="0" gridSize="10" guides="1" tooltips="1" connect="1" arrows="1" fold="1" pageScale="1" pageWidth="827" pageHeight="1169" math="0" shadow="0">
      <root>
        <mxCell id="0" />
        <mxCell id="1" parent="0" />
        <mxCell id="1BpzSnQ61FEBO4EyYo04-28" value="Đăng nhập hệ thống" style="ellipse;whiteSpace=wrap;html=1;fillColor=#FFFFFF;" vertex="1" parent="1">
          <mxGeometry x="295" y="33" width="140" height="60" as="geometry" />
        </mxCell>
        <mxCell id="1BpzSnQ61FEBO4EyYo04-29" value="Là người mua?" style="rhombus;whiteSpace=wrap;html=1;" vertex="1" parent="1">
          <mxGeometry x="302" y="143" width="120" height="80" as="geometry" />
        </mxCell>
        <mxCell id="1BpzSnQ61FEBO4EyYo04-30" value="Xem danh mục sản phẩm" style="rounded=1;whiteSpace=wrap;html=1;" vertex="1" parent="1">
          <mxGeometry x="126" y="260" width="180" height="60" as="geometry" />
        </mxCell>
        <mxCell id="1BpzSnQ61FEBO4EyYo04-31" value="Lọc/sắp xếp theo tên, giá" style="rounded=1;whiteSpace=wrap;html=1;" vertex="1" parent="1">
          <mxGeometry x="126" y="350" width="180" height="60" as="geometry" />
        </mxCell>
        <mxCell id="1BpzSnQ61FEBO4EyYo04-32" value="Xem chi tiết sản phẩm" style="rounded=1;whiteSpace=wrap;html=1;" vertex="1" parent="1">
          <mxGeometry x="126" y="440" width="180" height="60" as="geometry" />
        </mxCell>
        <mxCell id="1BpzSnQ61FEBO4EyYo04-33" value="Đặt hàng (Mua hàng)" style="rounded=1;whiteSpace=wrap;html=1;" vertex="1" parent="1">
          <mxGeometry x="126" y="530" width="180" height="60" as="geometry" />
        </mxCell>
        <mxCell id="1BpzSnQ61FEBO4EyYo04-34" value="Xem giỏ hàng" style="rounded=1;whiteSpace=wrap;html=1;" vertex="1" parent="1">
          <mxGeometry x="126" y="620" width="180" height="60" as="geometry" />
        </mxCell>
        <mxCell id="1BpzSnQ61FEBO4EyYo04-35" value="Thực hiện thanh toán" style="rounded=1;whiteSpace=wrap;html=1;" vertex="1" parent="1">
          <mxGeometry x="126" y="710" width="180" height="60" as="geometry" />
        </mxCell>
        <mxCell id="1BpzSnQ61FEBO4EyYo04-36" value="Nhận email xác nhận" style="rounded=1;whiteSpace=wrap;html=1;" vertex="1" parent="1">
          <mxGeometry x="126" y="800" width="180" height="60" as="geometry" />
        </mxCell>
        <mxCell id="1BpzSnQ61FEBO4EyYo04-37" value="Quản trị viên đăng nhập" style="rounded=1;whiteSpace=wrap;html=1;" vertex="1" parent="1">
          <mxGeometry x="426" y="260" width="200" height="60" as="geometry" />
        </mxCell>
        <mxCell id="1BpzSnQ61FEBO4EyYo04-38" value="Quản lý sản phẩm" style="rounded=1;whiteSpace=wrap;html=1;" vertex="1" parent="1">
          <mxGeometry x="426" y="350" width="200" height="60" as="geometry" />
        </mxCell>
        <mxCell id="1BpzSnQ61FEBO4EyYo04-39" value="Gán sản phẩm vào kho" style="rounded=1;whiteSpace=wrap;html=1;" vertex="1" parent="1">
          <mxGeometry x="426" y="440" width="200" height="60" as="geometry" />
        </mxCell>
        <mxCell id="1BpzSnQ61FEBO4EyYo04-40" value="Quản lý giỏ hàng người dùng" style="rounded=1;whiteSpace=wrap;html=1;" vertex="1" parent="1">
          <mxGeometry x="426" y="530" width="200" height="60" as="geometry" />
        </mxCell>
        <mxCell id="1BpzSnQ61FEBO4EyYo04-41" value="Quản lý tồn kho" style="rounded=1;whiteSpace=wrap;html=1;" vertex="1" parent="1">
          <mxGeometry x="426" y="620" width="200" height="60" as="geometry" />
        </mxCell>
        <mxCell id="1BpzSnQ61FEBO4EyYo04-42" edge="1" parent="1" source="1BpzSnQ61FEBO4EyYo04-28" target="1BpzSnQ61FEBO4EyYo04-29">
          <mxGeometry relative="1" as="geometry" />
        </mxCell>
        <mxCell id="1BpzSnQ61FEBO4EyYo04-43" value="Yes" edge="1" parent="1" source="1BpzSnQ61FEBO4EyYo04-29" target="1BpzSnQ61FEBO4EyYo04-30">
          <mxGeometry relative="1" as="geometry" />
        </mxCell>
        <mxCell id="1BpzSnQ61FEBO4EyYo04-44" value="No" edge="1" parent="1" source="1BpzSnQ61FEBO4EyYo04-29" target="1BpzSnQ61FEBO4EyYo04-37">
          <mxGeometry relative="1" as="geometry" />
        </mxCell>
        <mxCell id="1BpzSnQ61FEBO4EyYo04-45" edge="1" parent="1" source="1BpzSnQ61FEBO4EyYo04-30" target="1BpzSnQ61FEBO4EyYo04-31">
          <mxGeometry relative="1" as="geometry" />
        </mxCell>
        <mxCell id="1BpzSnQ61FEBO4EyYo04-46" edge="1" parent="1" source="1BpzSnQ61FEBO4EyYo04-31" target="1BpzSnQ61FEBO4EyYo04-32">
          <mxGeometry relative="1" as="geometry" />
        </mxCell>
        <mxCell id="1BpzSnQ61FEBO4EyYo04-47" edge="1" parent="1" source="1BpzSnQ61FEBO4EyYo04-32" target="1BpzSnQ61FEBO4EyYo04-33">
          <mxGeometry relative="1" as="geometry" />
        </mxCell>
        <mxCell id="1BpzSnQ61FEBO4EyYo04-48" edge="1" parent="1" source="1BpzSnQ61FEBO4EyYo04-33" target="1BpzSnQ61FEBO4EyYo04-34">
          <mxGeometry relative="1" as="geometry" />
        </mxCell>
        <mxCell id="1BpzSnQ61FEBO4EyYo04-49" edge="1" parent="1" source="1BpzSnQ61FEBO4EyYo04-34" target="1BpzSnQ61FEBO4EyYo04-35">
          <mxGeometry relative="1" as="geometry" />
        </mxCell>
        <mxCell id="1BpzSnQ61FEBO4EyYo04-50" edge="1" parent="1" source="1BpzSnQ61FEBO4EyYo04-35" target="1BpzSnQ61FEBO4EyYo04-36">
          <mxGeometry relative="1" as="geometry" />
        </mxCell>
        <mxCell id="1BpzSnQ61FEBO4EyYo04-51" edge="1" parent="1" source="1BpzSnQ61FEBO4EyYo04-37" target="1BpzSnQ61FEBO4EyYo04-38">
          <mxGeometry relative="1" as="geometry" />
        </mxCell>
        <mxCell id="1BpzSnQ61FEBO4EyYo04-52" edge="1" parent="1" source="1BpzSnQ61FEBO4EyYo04-38" target="1BpzSnQ61FEBO4EyYo04-39">
          <mxGeometry relative="1" as="geometry" />
        </mxCell>
        <mxCell id="1BpzSnQ61FEBO4EyYo04-53" edge="1" parent="1" source="1BpzSnQ61FEBO4EyYo04-39" target="1BpzSnQ61FEBO4EyYo04-40">
          <mxGeometry relative="1" as="geometry" />
        </mxCell>
        <mxCell id="1BpzSnQ61FEBO4EyYo04-54" edge="1" parent="1" source="1BpzSnQ61FEBO4EyYo04-40" target="1BpzSnQ61FEBO4EyYo04-41">
          <mxGeometry relative="1" as="geometry" />
        </mxCell>
      </root>
    </mxGraphModel>
  </diagram>
  <diagram id="MelY_GDvSwmXL2U6tFKw" name="Cau8_5">
    <mxGraphModel grid="0" page="0" gridSize="10" guides="1" tooltips="1" connect="1" arrows="1" fold="1" pageScale="1" pageWidth="827" pageHeight="1169" math="0" shadow="0">
      <root>
        <mxCell id="0" />
        <mxCell id="1" parent="0" />
        <mxCell id="j_gRBBuLvPVwz7Tf89DK-1" value="" style="ellipse;shape=startState;fillColor=#000000;strokeColor=#000000;" vertex="1" parent="1">
          <mxGeometry x="170" y="40" width="30" height="30" as="geometry" />
        </mxCell>
        <mxCell id="j_gRBBuLvPVwz7Tf89DK-2" value="Người mua nhấn &#39;Mua hàng&#39;" style="rounded=1;whiteSpace=wrap;html=1;" vertex="1" parent="1">
          <mxGeometry x="85" y="100" width="200" height="60" as="geometry" />
        </mxCell>
        <mxCell id="j_gRBBuLvPVwz7Tf89DK-3" value="Hệ thống thêm sản phẩm vào giỏ hàng" style="rounded=1;whiteSpace=wrap;html=1;" vertex="1" parent="1">
          <mxGeometry x="85" y="190" width="200" height="60" as="geometry" />
        </mxCell>
        <mxCell id="j_gRBBuLvPVwz7Tf89DK-4" value="Người mua mở giỏ hàng và nhấn &#39;Thanh toán&#39;" style="rounded=1;whiteSpace=wrap;html=1;" vertex="1" parent="1">
          <mxGeometry x="60" y="280" width="250" height="60" as="geometry" />
        </mxCell>
        <mxCell id="j_gRBBuLvPVwz7Tf89DK-5" value="Xác thực thông tin sản phẩm (tồn kho, giá)" style="rounded=1;whiteSpace=wrap;html=1;" vertex="1" parent="1">
          <mxGeometry x="55" y="370" width="260" height="60" as="geometry" />
        </mxCell>
        <mxCell id="j_gRBBuLvPVwz7Tf89DK-6" value="Thông tin hợp lệ?" style="rhombus;whiteSpace=wrap;html=1;" vertex="1" parent="1">
          <mxGeometry x="125" y="450" width="120" height="80" as="geometry" />
        </mxCell>
        <mxCell id="j_gRBBuLvPVwz7Tf89DK-7" value="Xử lý thanh toán" style="rounded=1;whiteSpace=wrap;html=1;" vertex="1" parent="1">
          <mxGeometry x="80" y="580" width="180" height="60" as="geometry" />
        </mxCell>
        <mxCell id="j_gRBBuLvPVwz7Tf89DK-8" value="Thanh toán thành công?" style="rhombus;whiteSpace=wrap;html=1;" vertex="1" parent="1">
          <mxGeometry x="100" y="670" width="140" height="80" as="geometry" />
        </mxCell>
        <mxCell id="j_gRBBuLvPVwz7Tf89DK-9" value="Cập nhật tồn kho &amp; gửi email xác nhận" style="rounded=1;whiteSpace=wrap;html=1;" vertex="1" parent="1">
          <mxGeometry x="60" y="790" width="220" height="60" as="geometry" />
        </mxCell>
        <mxCell id="j_gRBBuLvPVwz7Tf89DK-10" value="Hiển thị thông báo &#39;Mua hàng thành công&#39;" style="rounded=1;whiteSpace=wrap;html=1;" vertex="1" parent="1">
          <mxGeometry x="40" y="870" width="260" height="60" as="geometry" />
        </mxCell>
        <mxCell id="j_gRBBuLvPVwz7Tf89DK-11" value="Thông báo lỗi &amp; quay lại giỏ hàng" style="rounded=1;whiteSpace=wrap;html=1;fillColor=#FFCCCC;" vertex="1" parent="1">
          <mxGeometry x="345" y="680" width="220" height="60" as="geometry" />
        </mxCell>
        <mxCell id="j_gRBBuLvPVwz7Tf89DK-12" value="" style="ellipse;shape=endState;fillColor=#000000;strokeColor=#000000;" vertex="1" parent="1">
          <mxGeometry x="155" y="970" width="30" height="30" as="geometry" />
        </mxCell>
        <mxCell id="j_gRBBuLvPVwz7Tf89DK-13" edge="1" parent="1" source="j_gRBBuLvPVwz7Tf89DK-1" target="j_gRBBuLvPVwz7Tf89DK-2">
          <mxGeometry relative="1" as="geometry" />
        </mxCell>
        <mxCell id="j_gRBBuLvPVwz7Tf89DK-14" edge="1" parent="1" source="j_gRBBuLvPVwz7Tf89DK-2" target="j_gRBBuLvPVwz7Tf89DK-3">
          <mxGeometry relative="1" as="geometry" />
        </mxCell>
        <mxCell id="j_gRBBuLvPVwz7Tf89DK-15" edge="1" parent="1" source="j_gRBBuLvPVwz7Tf89DK-3" target="j_gRBBuLvPVwz7Tf89DK-4">
          <mxGeometry relative="1" as="geometry" />
        </mxCell>
        <mxCell id="j_gRBBuLvPVwz7Tf89DK-16" edge="1" parent="1" source="j_gRBBuLvPVwz7Tf89DK-4" target="j_gRBBuLvPVwz7Tf89DK-5">
          <mxGeometry relative="1" as="geometry" />
        </mxCell>
        <mxCell id="j_gRBBuLvPVwz7Tf89DK-17" edge="1" parent="1" source="j_gRBBuLvPVwz7Tf89DK-5" target="j_gRBBuLvPVwz7Tf89DK-6">
          <mxGeometry relative="1" as="geometry" />
        </mxCell>
        <mxCell id="j_gRBBuLvPVwz7Tf89DK-18" value="Yes" style="exitX=0.382;exitY=0.883;exitDx=0;exitDy=0;exitPerimeter=0;" edge="1" parent="1" source="j_gRBBuLvPVwz7Tf89DK-6" target="j_gRBBuLvPVwz7Tf89DK-7">
          <mxGeometry relative="1" as="geometry" />
        </mxCell>
        <mxCell id="j_gRBBuLvPVwz7Tf89DK-19" value="No" edge="1" parent="1" source="j_gRBBuLvPVwz7Tf89DK-6" target="j_gRBBuLvPVwz7Tf89DK-11">
          <mxGeometry x="-0.2105" y="-10" relative="1" as="geometry">
            <Array as="points">
              <mxPoint x="455" y="490" />
            </Array>
            <mxPoint as="offset" />
          </mxGeometry>
        </mxCell>
        <mxCell id="j_gRBBuLvPVwz7Tf89DK-20" edge="1" parent="1" source="j_gRBBuLvPVwz7Tf89DK-7" target="j_gRBBuLvPVwz7Tf89DK-8">
          <mxGeometry relative="1" as="geometry" />
        </mxCell>
        <mxCell id="j_gRBBuLvPVwz7Tf89DK-21" value="Yes" edge="1" parent="1" source="j_gRBBuLvPVwz7Tf89DK-8" target="j_gRBBuLvPVwz7Tf89DK-9">
          <mxGeometry relative="1" as="geometry" />
        </mxCell>
        <mxCell id="j_gRBBuLvPVwz7Tf89DK-22" value="No" edge="1" parent="1" source="j_gRBBuLvPVwz7Tf89DK-8" target="j_gRBBuLvPVwz7Tf89DK-11">
          <mxGeometry relative="1" as="geometry" />
        </mxCell>
        <mxCell id="j_gRBBuLvPVwz7Tf89DK-23" edge="1" parent="1" source="j_gRBBuLvPVwz7Tf89DK-9" target="j_gRBBuLvPVwz7Tf89DK-10">
          <mxGeometry relative="1" as="geometry" />
        </mxCell>
        <mxCell id="j_gRBBuLvPVwz7Tf89DK-24" edge="1" parent="1" source="j_gRBBuLvPVwz7Tf89DK-10" target="j_gRBBuLvPVwz7Tf89DK-12">
          <mxGeometry relative="1" as="geometry" />
        </mxCell>
        <mxCell id="j_gRBBuLvPVwz7Tf89DK-25" edge="1" parent="1" source="j_gRBBuLvPVwz7Tf89DK-11" target="j_gRBBuLvPVwz7Tf89DK-12">
          <mxGeometry relative="1" as="geometry">
            <Array as="points">
              <mxPoint x="455" y="980" />
            </Array>
          </mxGeometry>
        </mxCell>
      </root>
    </mxGraphModel>
  </diagram>
  <diagram id="lEU2A5TgksuJ1taHKQq-" name="Cau8_7">
    <mxGraphModel grid="0" page="0" gridSize="10" guides="1" tooltips="1" connect="1" arrows="1" fold="1" pageScale="1" pageWidth="827" pageHeight="1169" math="0" shadow="0">
      <root>
        <mxCell id="0" />
        <mxCell id="1" parent="0" />
        <mxCell id="sPUnBXlwO7iYO8c4vI4m-1" value="" style="rounded=0;whiteSpace=wrap;html=1;" vertex="1" parent="1">
          <mxGeometry x="52.5" y="40" width="700" height="790" as="geometry" />
        </mxCell>
        <mxCell id="sPUnBXlwO7iYO8c4vI4m-2" value="Thanh toán" style="rounded=0;whiteSpace=wrap;html=1;" vertex="1" parent="1">
          <mxGeometry x="632.88" y="780" width="80" height="25" as="geometry" />
        </mxCell>
        <mxCell id="sPUnBXlwO7iYO8c4vI4m-3" value="Quay lại" style="rounded=0;whiteSpace=wrap;html=1;" vertex="1" parent="1">
          <mxGeometry x="70" y="780" width="80" height="25" as="geometry" />
        </mxCell>
        <mxCell id="sPUnBXlwO7iYO8c4vI4m-4" value="" style="endArrow=none;html=1;rounded=0;entryX=1;entryY=0.029;entryDx=0;entryDy=0;entryPerimeter=0;exitX=0.001;exitY=0.183;exitDx=0;exitDy=0;exitPerimeter=0;" edge="1" parent="1" target="sPUnBXlwO7iYO8c4vI4m-1">
          <mxGeometry width="50" height="50" relative="1" as="geometry">
            <mxPoint x="52.5" y="60" as="sourcePoint" />
            <mxPoint x="612.5" y="61" as="targetPoint" />
          </mxGeometry>
        </mxCell>
        <mxCell id="sPUnBXlwO7iYO8c4vI4m-5" value="&lt;b&gt;&lt;font style=&quot;font-size: 18px;&quot;&gt;Giỏ hàng (2)&lt;/font&gt;&lt;/b&gt;" style="text;html=1;align=center;verticalAlign=middle;whiteSpace=wrap;rounded=0;" vertex="1" parent="1">
          <mxGeometry x="40" y="70" width="152.5" height="30" as="geometry" />
        </mxCell>
        <mxCell id="sPUnBXlwO7iYO8c4vI4m-6" value="Tìm sản phẩm :" style="text;html=1;align=center;verticalAlign=middle;whiteSpace=wrap;rounded=0;" vertex="1" parent="1">
          <mxGeometry x="77.5" y="100" width="95" height="30" as="geometry" />
        </mxCell>
        <mxCell id="sPUnBXlwO7iYO8c4vI4m-7" value="" style="rounded=0;whiteSpace=wrap;html=1;" vertex="1" parent="1">
          <mxGeometry x="172.5" y="105" width="370" height="20" as="geometry" />
        </mxCell>
        <mxCell id="sPUnBXlwO7iYO8c4vI4m-8" value="-&amp;gt;" style="rounded=0;whiteSpace=wrap;html=1;" vertex="1" parent="1">
          <mxGeometry x="552.5" y="105" width="20" height="20" as="geometry" />
        </mxCell>
        <mxCell id="sPUnBXlwO7iYO8c4vI4m-9" value="Sản phẩm" style="text;html=1;align=center;verticalAlign=middle;whiteSpace=wrap;rounded=0;" vertex="1" parent="1">
          <mxGeometry x="102.5" y="150" width="60" height="30" as="geometry" />
        </mxCell>
        <mxCell id="sPUnBXlwO7iYO8c4vI4m-10" value="Số lượng" style="text;html=1;align=center;verticalAlign=middle;whiteSpace=wrap;rounded=0;" vertex="1" parent="1">
          <mxGeometry x="304" y="150.4" width="60" height="30" as="geometry" />
        </mxCell>
        <mxCell id="sPUnBXlwO7iYO8c4vI4m-11" value="Giá" style="text;html=1;align=center;verticalAlign=middle;whiteSpace=wrap;rounded=0;" vertex="1" parent="1">
          <mxGeometry x="406.13" y="150.4" width="60" height="30" as="geometry" />
        </mxCell>
        <mxCell id="sPUnBXlwO7iYO8c4vI4m-12" value="" style="shape=mxgraph.arrows2.wedgeArrow;html=1;bendable=0;startWidth=8.96551724137931;fillColor=strokeColor;defaultFillColor=invert;defaultGradientColor=invert;rounded=0;" edge="1" parent="1">
          <mxGeometry width="100" height="100" relative="1" as="geometry">
            <mxPoint x="470.43000000000006" y="160.39999999999998" as="sourcePoint" />
            <mxPoint x="470.43000000000006" y="170.39999999999998" as="targetPoint" />
          </mxGeometry>
        </mxCell>
        <mxCell id="sPUnBXlwO7iYO8c4vI4m-13" value="Thành tiền" style="text;html=1;align=center;verticalAlign=middle;whiteSpace=wrap;rounded=0;" vertex="1" parent="1">
          <mxGeometry x="592.5" y="150.4" width="60" height="30" as="geometry" />
        </mxCell>
        <mxCell id="sPUnBXlwO7iYO8c4vI4m-14" value="SP1" style="text;html=1;align=center;verticalAlign=middle;whiteSpace=wrap;rounded=0;" vertex="1" parent="1">
          <mxGeometry x="102.5" y="200" width="60" height="30" as="geometry" />
        </mxCell>
        <mxCell id="sPUnBXlwO7iYO8c4vI4m-15" value="5" style="text;html=1;align=center;verticalAlign=middle;whiteSpace=wrap;rounded=0;" vertex="1" parent="1">
          <mxGeometry x="304" y="200.39999999999998" width="60" height="30" as="geometry" />
        </mxCell>
        <mxCell id="sPUnBXlwO7iYO8c4vI4m-16" value="100,000 đ" style="text;html=1;align=center;verticalAlign=middle;whiteSpace=wrap;rounded=0;" vertex="1" parent="1">
          <mxGeometry x="406.13" y="200.39999999999998" width="60" height="30" as="geometry" />
        </mxCell>
        <mxCell id="sPUnBXlwO7iYO8c4vI4m-17" value="500,000 đ" style="text;html=1;align=center;verticalAlign=middle;whiteSpace=wrap;rounded=0;" vertex="1" parent="1">
          <mxGeometry x="592.5" y="200.39999999999998" width="60" height="30" as="geometry" />
        </mxCell>
        <mxCell id="sPUnBXlwO7iYO8c4vI4m-18" value="SP2" style="text;html=1;align=center;verticalAlign=middle;whiteSpace=wrap;rounded=0;" vertex="1" parent="1">
          <mxGeometry x="102.5" y="320" width="60" height="30" as="geometry" />
        </mxCell>
        <mxCell id="sPUnBXlwO7iYO8c4vI4m-19" value="2" style="text;html=1;align=center;verticalAlign=middle;whiteSpace=wrap;rounded=0;" vertex="1" parent="1">
          <mxGeometry x="304" y="320.4" width="60" height="30" as="geometry" />
        </mxCell>
        <mxCell id="sPUnBXlwO7iYO8c4vI4m-20" value="50,000 đ" style="text;html=1;align=center;verticalAlign=middle;whiteSpace=wrap;rounded=0;" vertex="1" parent="1">
          <mxGeometry x="406.13" y="320.4" width="60" height="30" as="geometry" />
        </mxCell>
        <mxCell id="sPUnBXlwO7iYO8c4vI4m-21" value="100,000 đ" style="text;html=1;align=center;verticalAlign=middle;whiteSpace=wrap;rounded=0;" vertex="1" parent="1">
          <mxGeometry x="592.5" y="320.4" width="60" height="30" as="geometry" />
        </mxCell>
        <mxCell id="sPUnBXlwO7iYO8c4vI4m-22" value="" style="endArrow=none;html=1;rounded=0;entryX=1.002;entryY=0.543;entryDx=0;entryDy=0;entryPerimeter=0;exitX=0.001;exitY=0.183;exitDx=0;exitDy=0;exitPerimeter=0;" edge="1" parent="1">
          <mxGeometry width="50" height="50" relative="1" as="geometry">
            <mxPoint x="52.5" y="520" as="sourcePoint" />
            <mxPoint x="753.8999999999999" y="520.1000000000001" as="targetPoint" />
          </mxGeometry>
        </mxCell>
        <mxCell id="sPUnBXlwO7iYO8c4vI4m-23" value="&lt;b&gt;Tổng tiền (5 sp)&lt;/b&gt;" style="text;html=1;align=center;verticalAlign=middle;whiteSpace=wrap;rounded=0;" vertex="1" parent="1">
          <mxGeometry x="72.5" y="520" width="100" height="30" as="geometry" />
        </mxCell>
        <mxCell id="sPUnBXlwO7iYO8c4vI4m-24" value="500,000 đ" style="text;html=1;align=center;verticalAlign=middle;whiteSpace=wrap;rounded=0;" vertex="1" parent="1">
          <mxGeometry x="222" y="520" width="60" height="30" as="geometry" />
        </mxCell>
        <mxCell id="sPUnBXlwO7iYO8c4vI4m-25" value="Phương thức thanh toán:" style="text;html=1;align=left;verticalAlign=middle;whiteSpace=wrap;rounded=0;" vertex="1" parent="1">
          <mxGeometry x="81.25" y="595" width="137.5" height="30" as="geometry" />
        </mxCell>
        <mxCell id="sPUnBXlwO7iYO8c4vI4m-26" value="Nhanh&amp;nbsp; &amp;nbsp; &amp;nbsp; &amp;nbsp; &amp;nbsp; &amp;nbsp; &amp;nbsp; &amp;nbsp; &amp;nbsp; &amp;nbsp; &amp;nbsp; &amp;nbsp; 28.700 đ" style="rounded=0;whiteSpace=wrap;html=1;" vertex="1" parent="1">
          <mxGeometry x="106.25" y="625" width="170" height="20" as="geometry" />
        </mxCell>
        <mxCell id="sPUnBXlwO7iYO8c4vI4m-27" value="&lt;u&gt;&lt;b&gt;Chi tiết thanh toán:&amp;nbsp;&lt;/b&gt;&lt;/u&gt;" style="text;html=1;align=center;verticalAlign=middle;whiteSpace=wrap;rounded=0;" vertex="1" parent="1">
          <mxGeometry x="503.38" y="550" width="119.12" height="30" as="geometry" />
        </mxCell>
        <mxCell id="sPUnBXlwO7iYO8c4vI4m-28" value="Ảnh" style="text;html=1;align=center;verticalAlign=middle;whiteSpace=wrap;rounded=0;" vertex="1" parent="1">
          <mxGeometry x="210.75" y="150.4" width="60" height="30" as="geometry" />
        </mxCell>
        <mxCell id="sPUnBXlwO7iYO8c4vI4m-29" value="" style="ellipse;whiteSpace=wrap;html=1;aspect=fixed;" vertex="1" parent="1">
          <mxGeometry x="70" y="155.4" width="20" height="20" as="geometry" />
        </mxCell>
        <mxCell id="sPUnBXlwO7iYO8c4vI4m-30" value="" style="ellipse;html=1;shape=endState;fillColor=#000000;strokeColor=#ff0000;" vertex="1" parent="1">
          <mxGeometry x="66.25" y="205.39999999999998" width="25" height="24.6" as="geometry" />
        </mxCell>
        <mxCell id="sPUnBXlwO7iYO8c4vI4m-31" value="" style="ellipse;whiteSpace=wrap;html=1;aspect=fixed;" vertex="1" parent="1">
          <mxGeometry x="68.75" y="325" width="20" height="20" as="geometry" />
        </mxCell>
        <mxCell id="sPUnBXlwO7iYO8c4vI4m-32" value="+" style="text;html=1;align=center;verticalAlign=middle;whiteSpace=wrap;rounded=0;glass=0;strokeColor=default;" vertex="1" parent="1">
          <mxGeometry x="350.5" y="210.39999999999998" width="10" height="10" as="geometry" />
        </mxCell>
        <mxCell id="sPUnBXlwO7iYO8c4vI4m-33" value="+" style="text;html=1;align=center;verticalAlign=middle;whiteSpace=wrap;rounded=0;glass=0;strokeColor=default;" vertex="1" parent="1">
          <mxGeometry x="350.5" y="330" width="10" height="10" as="geometry" />
        </mxCell>
        <mxCell id="sPUnBXlwO7iYO8c4vI4m-34" value="-" style="text;html=1;align=center;verticalAlign=middle;whiteSpace=wrap;rounded=0;glass=0;strokeColor=default;" vertex="1" parent="1">
          <mxGeometry x="311" y="210" width="10" height="10" as="geometry" />
        </mxCell>
        <mxCell id="sPUnBXlwO7iYO8c4vI4m-35" value="-" style="text;html=1;align=center;verticalAlign=middle;whiteSpace=wrap;rounded=0;glass=0;strokeColor=default;" vertex="1" parent="1">
          <mxGeometry x="311" y="330" width="10" height="10" as="geometry" />
        </mxCell>
        <mxCell id="sPUnBXlwO7iYO8c4vI4m-36" value="ảnh thông tin #1" style="rounded=1;whiteSpace=wrap;html=1;" vertex="1" parent="1">
          <mxGeometry x="194.5" y="190" width="92.5" height="69.6" as="geometry" />
        </mxCell>
        <mxCell id="sPUnBXlwO7iYO8c4vI4m-37" value="ảnh thông tin #2" style="rounded=1;whiteSpace=wrap;html=1;" vertex="1" parent="1">
          <mxGeometry x="194.5" y="310" width="92.5" height="69.6" as="geometry" />
        </mxCell>
        <mxCell id="sPUnBXlwO7iYO8c4vI4m-38" value="Tùy chọn" style="text;html=1;align=center;verticalAlign=middle;whiteSpace=wrap;rounded=0;" vertex="1" parent="1">
          <mxGeometry x="503.38" y="149.6" width="60" height="30" as="geometry" />
        </mxCell>
        <mxCell id="sPUnBXlwO7iYO8c4vI4m-39" value="" style="shape=partialRectangle;whiteSpace=wrap;html=1;bottom=0;right=0;fillColor=none;rotation=-140;" vertex="1" parent="1">
          <mxGeometry x="557.5" y="210.0000000000001" width="10" height="10" as="geometry" />
        </mxCell>
        <mxCell id="sPUnBXlwO7iYO8c4vI4m-40" value="" style="shape=partialRectangle;whiteSpace=wrap;html=1;bottom=0;right=0;fillColor=none;rotation=-140;" vertex="1" parent="1">
          <mxGeometry x="557.5" y="329.99999999999994" width="10" height="10" as="geometry" />
        </mxCell>
        <mxCell id="sPUnBXlwO7iYO8c4vI4m-41" value="&lt;div align=&quot;left&quot;&gt;&lt;font style=&quot;font-size: 11px;&quot;&gt;Xanh lam&lt;/font&gt;&lt;/div&gt;" style="text;html=1;align=left;verticalAlign=middle;whiteSpace=wrap;rounded=0;fillColor=none;strokeColor=default;" vertex="1" parent="1">
          <mxGeometry x="496.13" y="205.5999999999999" width="76.37" height="19.6" as="geometry" />
        </mxCell>
        <mxCell id="sPUnBXlwO7iYO8c4vI4m-42" value="&lt;font style=&quot;font-size: 11px;&quot;&gt;Đỏ tươi&lt;/font&gt;" style="text;html=1;align=left;verticalAlign=middle;whiteSpace=wrap;rounded=0;fillColor=none;strokeColor=default;" vertex="1" parent="1">
          <mxGeometry x="496.13" y="325.20000000000005" width="76.37" height="19.6" as="geometry" />
        </mxCell>
        <mxCell id="sPUnBXlwO7iYO8c4vI4m-43" value="Thao tác" style="text;html=1;align=center;verticalAlign=middle;whiteSpace=wrap;rounded=0;" vertex="1" parent="1">
          <mxGeometry x="672.5" y="150.4" width="60" height="30" as="geometry" />
        </mxCell>
        <mxCell id="sPUnBXlwO7iYO8c4vI4m-44" value="&lt;div align=&quot;center&quot;&gt;&lt;font style=&quot;font-size: 11px;&quot;&gt;Xóa&lt;/font&gt;&lt;/div&gt;" style="text;html=1;align=center;verticalAlign=middle;whiteSpace=wrap;rounded=0;fillColor=none;strokeColor=default;" vertex="1" parent="1">
          <mxGeometry x="672.5" y="205.20000000000005" width="28.19" height="19.6" as="geometry" />
        </mxCell>
        <mxCell id="sPUnBXlwO7iYO8c4vI4m-45" value="Lưu" style="text;html=1;align=center;verticalAlign=middle;whiteSpace=wrap;rounded=0;fillColor=none;strokeColor=default;" vertex="1" parent="1">
          <mxGeometry x="712.5" y="205.2" width="28.19" height="19.6" as="geometry" />
        </mxCell>
        <mxCell id="sPUnBXlwO7iYO8c4vI4m-46" value="&lt;div align=&quot;center&quot;&gt;&lt;font style=&quot;font-size: 11px;&quot;&gt;Xóa&lt;/font&gt;&lt;/div&gt;" style="text;html=1;align=center;verticalAlign=middle;whiteSpace=wrap;rounded=0;fillColor=none;strokeColor=default;" vertex="1" parent="1">
          <mxGeometry x="672.5" y="325.2000000000001" width="28.19" height="19.6" as="geometry" />
        </mxCell>
        <mxCell id="sPUnBXlwO7iYO8c4vI4m-47" value="Lưu" style="text;html=1;align=center;verticalAlign=middle;whiteSpace=wrap;rounded=0;fillColor=none;strokeColor=default;" vertex="1" parent="1">
          <mxGeometry x="712.5" y="325.20000000000005" width="28.19" height="19.6" as="geometry" />
        </mxCell>
        <mxCell id="sPUnBXlwO7iYO8c4vI4m-48" value="?" style="rounded=0;whiteSpace=wrap;html=1;" vertex="1" parent="1">
          <mxGeometry x="716.59" y="75" width="20" height="20" as="geometry" />
        </mxCell>
        <mxCell id="sPUnBXlwO7iYO8c4vI4m-49" value="Siêu tốc&amp;nbsp; &amp;nbsp; &amp;nbsp; &amp;nbsp; &amp;nbsp; &amp;nbsp; &amp;nbsp; &amp;nbsp; &amp;nbsp; &amp;nbsp; 140.000 đ" style="rounded=0;whiteSpace=wrap;html=1;" vertex="1" parent="1">
          <mxGeometry x="106.25" y="665" width="170" height="20" as="geometry" />
        </mxCell>
        <mxCell id="sPUnBXlwO7iYO8c4vI4m-50" value="" style="ellipse;whiteSpace=wrap;html=1;aspect=fixed;" vertex="1" parent="1">
          <mxGeometry x="76.25" y="665" width="20" height="20" as="geometry" />
        </mxCell>
        <mxCell id="sPUnBXlwO7iYO8c4vI4m-51" value="" style="ellipse;html=1;shape=endState;fillColor=#000000;strokeColor=#ff0000;" vertex="1" parent="1">
          <mxGeometry x="72.5" y="625" width="25" height="24.6" as="geometry" />
        </mxCell>
        <mxCell id="sPUnBXlwO7iYO8c4vI4m-52" value="Voucher của shop: &lt;i&gt;&amp;nbsp; &amp;nbsp; &amp;nbsp; &amp;nbsp; &amp;nbsp; &amp;nbsp; &amp;nbsp; &amp;nbsp; &amp;nbsp;Chọn hoặc nhập mã &amp;gt;&lt;/i&gt;" style="text;html=1;align=left;verticalAlign=middle;whiteSpace=wrap;rounded=0;" vertex="1" parent="1">
          <mxGeometry x="77.5" y="550" width="285" height="30" as="geometry" />
        </mxCell>
        <mxCell id="sPUnBXlwO7iYO8c4vI4m-53" value="Phương thức thanh toán:&amp;nbsp; &amp;nbsp; &amp;nbsp; &amp;nbsp;&lt;i&gt;Xem tất cả &amp;gt;&lt;/i&gt;" style="text;html=1;align=left;verticalAlign=middle;whiteSpace=wrap;rounded=0;" vertex="1" parent="1">
          <mxGeometry x="81.25" y="710" width="236.5" height="30" as="geometry" />
        </mxCell>
        <mxCell id="sPUnBXlwO7iYO8c4vI4m-54" value="Tổng tiền hàng:&amp;nbsp; &amp;nbsp; &amp;nbsp; &amp;nbsp;500.000đ" style="text;html=1;align=left;verticalAlign=middle;whiteSpace=wrap;rounded=0;" vertex="1" parent="1">
          <mxGeometry x="503.38" y="590" width="159.12" height="30" as="geometry" />
        </mxCell>
        <mxCell id="sPUnBXlwO7iYO8c4vI4m-55" value="Phí vận chuyển:&amp;nbsp; &amp;nbsp; &amp;nbsp; &amp;nbsp; 28.700đ" style="text;html=1;align=left;verticalAlign=middle;whiteSpace=wrap;rounded=0;" vertex="1" parent="1">
          <mxGeometry x="503.38" y="625" width="169.12" height="30" as="geometry" />
        </mxCell>
        <mxCell id="sPUnBXlwO7iYO8c4vI4m-56" value="" style="endArrow=none;html=1;rounded=0;" edge="1" parent="1">
          <mxGeometry width="50" height="50" relative="1" as="geometry">
            <mxPoint x="503.38" y="665" as="sourcePoint" />
            <mxPoint x="663.38" y="665" as="targetPoint" />
          </mxGeometry>
        </mxCell>
        <mxCell id="sPUnBXlwO7iYO8c4vI4m-57" value="&lt;i&gt;Tổng thanh toán:&amp;nbsp; &amp;nbsp; &amp;nbsp; &amp;nbsp;528.700đ&lt;/i&gt;" style="text;html=1;align=left;verticalAlign=middle;whiteSpace=wrap;rounded=0;" vertex="1" parent="1">
          <mxGeometry x="498.38" y="680" width="169.12" height="30" as="geometry" />
        </mxCell>
        <mxCell id="sPUnBXlwO7iYO8c4vI4m-58" value="&lt;i&gt;Bạn có thể quan tâm:&lt;/i&gt;" style="text;html=1;align=left;verticalAlign=middle;whiteSpace=wrap;rounded=0;" vertex="1" parent="1">
          <mxGeometry x="81.25" y="440" width="141.25" height="30" as="geometry" />
        </mxCell>
        <mxCell id="sPUnBXlwO7iYO8c4vI4m-59" value="SP3" style="text;html=1;align=center;verticalAlign=middle;whiteSpace=wrap;rounded=0;" vertex="1" parent="1">
          <mxGeometry x="216.25" y="440" width="60" height="30" as="geometry" />
        </mxCell>
        <mxCell id="sPUnBXlwO7iYO8c4vI4m-60" value="ảnh thông tin #3" style="rounded=1;whiteSpace=wrap;html=1;" vertex="1" parent="1">
          <mxGeometry x="292.5" y="420" width="92.5" height="69.6" as="geometry" />
        </mxCell>
        <mxCell id="sPUnBXlwO7iYO8c4vI4m-61" value="33,000 đ" style="text;html=1;align=center;verticalAlign=middle;whiteSpace=wrap;rounded=0;" vertex="1" parent="1">
          <mxGeometry x="311" y="490" width="60" height="30" as="geometry" />
        </mxCell>
        <mxCell id="sPUnBXlwO7iYO8c4vI4m-62" value="Lưu" style="text;html=1;align=center;verticalAlign=middle;whiteSpace=wrap;rounded=0;fillColor=none;strokeColor=default;" vertex="1" parent="1">
          <mxGeometry x="466.13" y="450.4" width="28.19" height="19.6" as="geometry" />
        </mxCell>
        <mxCell id="sPUnBXlwO7iYO8c4vI4m-63" value="Thêm" style="text;html=1;align=center;verticalAlign=middle;whiteSpace=wrap;rounded=0;fillColor=none;strokeColor=default;" vertex="1" parent="1">
          <mxGeometry x="412.5" y="450.4" width="40" height="19.6" as="geometry" />
        </mxCell>
        <mxCell id="sPUnBXlwO7iYO8c4vI4m-64" value="X" style="text;html=1;align=center;verticalAlign=middle;whiteSpace=wrap;rounded=0;fillColor=none;strokeColor=default;" vertex="1" parent="1">
          <mxGeometry x="542.5" y="445.20000000000005" width="30" height="30" as="geometry" />
        </mxCell>
      </root>
    </mxGraphModel>
  </diagram>
</mxfile>
